<svg width="218" height="25" viewBox="0 0 218 25" fill="none" xmlns="http://www.w3.org/2000/svg">
<g clip-path="url(#clip0_0_57)">
<path d="M2.8 25V5H7.75556C9.07407 5 10.1852 5.2 11.0889 5.6C12.0074 6 12.7481 6.52593 13.3111 7.17778C13.8741 7.81481 14.2815 8.51111 14.5333 9.26667C14.8 10.0222 14.9333 10.763 14.9333 11.4889C14.9333 12.2 14.8074 12.9333 14.5556 13.6889C14.3037 14.4444 13.8963 15.1481 13.3333 15.8C12.7704 16.4519 12.0296 16.9778 11.1111 17.3778C10.1926 17.7778 9.07407 17.9778 7.75556 17.9778H5.33333V25H2.8ZM5.33333 15.7111H7.62222C8.82222 15.7111 9.77037 15.5037 10.4667 15.0889C11.163 14.6593 11.6593 14.1259 11.9556 13.4889C12.2519 12.837 12.4 12.1704 12.4 11.4889C12.4 10.837 12.2519 10.1852 11.9556 9.53333C11.6741 8.88148 11.1852 8.34074 10.4889 7.91111C9.80741 7.48148 8.85185 7.26667 7.62222 7.26667H5.33333V15.7111ZM19.2 25L27.6667 4.33333H27.7111L36.1778 25H33.4889L31.1333 19.0667H24.1333L21.7556 25H19.2ZM24.9778 16.9556H30.2889L28.7111 13C28.5185 12.4963 28.3333 12 28.1556 11.5111C27.9778 11.0222 27.8 10.437 27.6222 9.75556C27.4444 10.437 27.2741 11.0222 27.1111 11.5111C26.9481 11.9852 26.763 12.4815 26.5556 13L24.9778 16.9556ZM44.1812 25V5H50.7368C52.5442 5 54.1146 5.2963 55.4479 5.88889C56.7961 6.48148 57.9072 7.26667 58.7812 8.24444C59.6553 9.22222 60.3072 10.3037 60.7368 11.4889C61.1664 12.6593 61.3812 13.8296 61.3812 15C61.3812 16.1704 61.1664 17.3481 60.7368 18.5333C60.3072 19.7037 59.6553 20.7778 58.7812 21.7556C57.9072 22.7333 56.7961 23.5185 55.4479 24.1111C54.1146 24.7037 52.5442 25 50.7368 25H44.1812ZM46.7146 22.7333H50.4701C52.0109 22.7333 53.3072 22.4963 54.359 22.0222C55.4109 21.5333 56.2627 20.9037 56.9146 20.1333C57.5664 19.3481 58.0331 18.5037 58.3146 17.6C58.6109 16.6963 58.759 15.8296 58.759 15C58.759 14.1704 58.6109 13.3037 58.3146 12.4C58.0331 11.4963 57.5664 10.6593 56.9146 9.88889C56.2627 9.1037 55.4109 8.47407 54.359 8C53.3072 7.51111 52.0109 7.26667 50.4701 7.26667H46.7146V22.7333ZM70.325 25V5H76.8806C78.688 5 80.2583 5.2963 81.5917 5.88889C82.9398 6.48148 84.0509 7.26667 84.925 8.24444C85.7991 9.22222 86.4509 10.3037 86.8806 11.4889C87.3102 12.6593 87.525 13.8296 87.525 15C87.525 16.1704 87.3102 17.3481 86.8806 18.5333C86.4509 19.7037 85.7991 20.7778 84.925 21.7556C84.0509 22.7333 82.9398 23.5185 81.5917 24.1111C80.2583 24.7037 78.688 25 76.8806 25H70.325ZM72.8583 22.7333H76.6139C78.1546 22.7333 79.4509 22.4963 80.5028 22.0222C81.5546 21.5333 82.4065 20.9037 83.0583 20.1333C83.7102 19.3481 84.1769 18.5037 84.4583 17.6C84.7546 16.6963 84.9028 15.8296 84.9028 15C84.9028 14.1704 84.7546 13.3037 84.4583 12.4C84.1769 11.4963 83.7102 10.6593 83.0583 9.88889C82.4065 9.1037 81.5546 8.47407 80.5028 8C79.4509 7.51111 78.1546 7.26667 76.6139 7.26667H72.8583V22.7333ZM98.725 25V15.3333L92.725 5H95.6583L98.9472 10.8222C99.1546 11.1926 99.3472 11.563 99.525 11.9333C99.7176 12.2889 99.9102 12.7037 100.103 13.1778C100.295 12.7037 100.488 12.2889 100.681 11.9333C100.873 11.563 101.073 11.1926 101.281 10.8222L104.592 5H107.258L101.258 15.3333V25H98.725ZM126.725 25V5H129.258V11.5333H136.369V5H138.903V25H136.369V13.8H129.258V25H126.725ZM149.573 25V5H152.106V25H149.573ZM174.074 25L165.562 12.6667L172.407 5H175.385L168.585 12.6444L177.162 25H174.074ZM162.762 25V5H165.296V25H162.762ZM184.906 25V5H194.773V7.26667H187.44V11.5333H193.217V13.8H187.44V22.7333H194.773V25H184.906ZM203.773 25V5H208.795C210.054 5 211.136 5.25185 212.04 5.75555C212.943 6.25926 213.64 6.92592 214.128 7.75555C214.632 8.57037 214.884 9.46667 214.884 10.4444C214.884 11.5407 214.573 12.5259 213.951 13.4C213.328 14.2741 212.477 14.9185 211.395 15.3333L218.106 25H215.151L208.795 15.8H206.306V25H203.773ZM206.306 13.6667H208.795C209.654 13.6667 210.351 13.5111 210.884 13.2C211.432 12.8741 211.832 12.4667 212.084 11.9778C212.351 11.4741 212.484 10.963 212.484 10.4444C212.484 9.51111 212.143 8.74815 211.462 8.15556C210.795 7.56296 209.906 7.26667 208.795 7.26667H206.306V13.6667Z" fill="white"/>
</g>
<defs>
<clipPath id="clip0_0_57">
<rect width="218" height="31" fill="white"/>
</clipPath>
</defs>
</svg>
